<?xml version="1.0" encoding="iso-8859-1"?>
<!-- Generator: Adobe Illustrator 16.0.0, SVG Export Plug-In . SVG Version: 6.00 Build 0)  -->
<!DOCTYPE svg PUBLIC "-//W3C//DTD SVG 1.1//EN" "http://www.w3.org/Graphics/SVG/1.1/DTD/svg11.dtd">
<svg version="1.1" id="Capa_1" xmlns="http://www.w3.org/2000/svg" xmlns:xlink="http://www.w3.org/1999/xlink" x="0px" y="0px"
	 width="380.721px" height="380.721px" viewBox="0 0 380.721 380.721" style="enable-background:new 0 0 380.721 380.721;"
	 xml:space="preserve">
<g>
	<g>
		<path d="M178.01,141.388c-21.401-45.493-0.18-78.379,8.482-80.721c8.649-2.37,2.928,45.615,2.928,45.615
			s9.329-19.537,12.234-16.179c9.144,5.35,1.789,32.55,1.789,32.55s19.403-18.515,19.612-37.906
			c10.026,20.728-16.499,54.405-16.499,56.641c0,2.243,29.442-26.316,25.434-50.849c-4.008-24.544-17.393-39.259-17.846-63.328
			c-8.029,0.441-6.24,29.883-6.24,29.883S194.962,28.542,205.221,0c-7.587,2.678-32.55,23.626-41.926,54.41
			C153.93,85.188,149.922,127.567,178.01,141.388z"/>
		<polygon points="180.543,359.157 199.562,359.157 211.762,217.338 167.17,217.338 		"/>
		<rect x="159.037" y="204.396" width="60.881" height="9.597"/>
		<path d="M124.947,148.388c5.031,29.599,32.364,52.255,65.413,52.255c33.044,0,60.383-22.645,65.413-52.255H124.947z"/>
		<rect x="180.246" y="363.27" width="19.316" height="17.451"/>
	</g>
</g>
<g>
</g>
<g>
</g>
<g>
</g>
<g>
</g>
<g>
</g>
<g>
</g>
<g>
</g>
<g>
</g>
<g>
</g>
<g>
</g>
<g>
</g>
<g>
</g>
<g>
</g>
<g>
</g>
<g>
</g>
</svg>
